<mxfile host="Electron" modified="2023-08-29T19:01:56.201Z" agent="Mozilla/5.0 (Windows NT 10.0; Win64; x64) AppleWebKit/537.36 (KHTML, like Gecko) draw.io/21.6.5 Chrome/114.0.5735.243 Electron/25.3.1 Safari/537.36" etag="YvWkUn7n0WQFuvKOXC-C" version="21.6.5" type="device">
  <diagram name="Page-1" id="01AyD0yjOrlG4l-qJz_V">
    <mxGraphModel dx="7158" dy="1011" grid="1" gridSize="10" guides="1" tooltips="1" connect="1" arrows="1" fold="1" page="1" pageScale="1" pageWidth="850" pageHeight="1100" math="0" shadow="0">
      <root>
        <mxCell id="0" />
        <mxCell id="1" parent="0" />
        <mxCell id="yClUdcWarPe3dw1EEp4e-1" value="" style="rounded=0;whiteSpace=wrap;html=1;" parent="1" vertex="1">
          <mxGeometry x="100" y="185" width="120" height="60" as="geometry" />
        </mxCell>
        <mxCell id="yClUdcWarPe3dw1EEp4e-2" value="DS: {value:[(), index]" style="text;html=1;strokeColor=none;fillColor=none;align=center;verticalAlign=middle;whiteSpace=wrap;rounded=0;" parent="1" vertex="1">
          <mxGeometry x="245" y="200" width="180" height="30" as="geometry" />
        </mxCell>
        <mxCell id="yClUdcWarPe3dw1EEp4e-5" value="while i &amp;lt; n" style="html=1;dashed=0;whiteSpace=wrap;shape=mxgraph.dfd.loop" parent="1" vertex="1">
          <mxGeometry x="260" y="500" width="80" height="30" as="geometry" />
        </mxCell>
        <mxCell id="yClUdcWarPe3dw1EEp4e-6" value="while i &amp;lt; n" style="html=1;dashed=0;whiteSpace=wrap;shape=mxgraph.dfd.loop" parent="1" vertex="1">
          <mxGeometry x="660" y="460" width="80" height="30" as="geometry" />
        </mxCell>
        <mxCell id="yClUdcWarPe3dw1EEp4e-7" value="initialize lists, j and k" style="rounded=0;whiteSpace=wrap;html=1;" parent="1" vertex="1">
          <mxGeometry x="240" y="420" width="120" height="60" as="geometry" />
        </mxCell>
        <mxCell id="yClUdcWarPe3dw1EEp4e-10" value="compute to_increase and to_add" style="rounded=0;whiteSpace=wrap;html=1;" parent="1" vertex="1">
          <mxGeometry x="245" y="560" width="120" height="60" as="geometry" />
        </mxCell>
        <mxCell id="yClUdcWarPe3dw1EEp4e-11" value="Append to ds" style="rounded=0;whiteSpace=wrap;html=1;" parent="1" vertex="1">
          <mxGeometry x="245" y="640" width="120" height="60" as="geometry" />
        </mxCell>
        <mxCell id="yClUdcWarPe3dw1EEp4e-17" style="edgeStyle=orthogonalEdgeStyle;rounded=0;orthogonalLoop=1;jettySize=auto;html=1;" parent="1" source="yClUdcWarPe3dw1EEp4e-12" target="yClUdcWarPe3dw1EEp4e-14" edge="1">
          <mxGeometry relative="1" as="geometry" />
        </mxCell>
        <mxCell id="yClUdcWarPe3dw1EEp4e-12" value="Identify Case" style="rounded=0;whiteSpace=wrap;html=1;" parent="1" vertex="1">
          <mxGeometry x="245" y="720" width="120" height="60" as="geometry" />
        </mxCell>
        <mxCell id="yClUdcWarPe3dw1EEp4e-21" value="increase j" style="edgeStyle=orthogonalEdgeStyle;rounded=0;orthogonalLoop=1;jettySize=auto;html=1;" parent="1" source="yClUdcWarPe3dw1EEp4e-14" target="yClUdcWarPe3dw1EEp4e-18" edge="1">
          <mxGeometry relative="1" as="geometry" />
        </mxCell>
        <mxCell id="yClUdcWarPe3dw1EEp4e-22" value="increase k" style="edgeStyle=orthogonalEdgeStyle;rounded=0;orthogonalLoop=1;jettySize=auto;html=1;" parent="1" source="yClUdcWarPe3dw1EEp4e-14" target="yClUdcWarPe3dw1EEp4e-20" edge="1">
          <mxGeometry relative="1" as="geometry" />
        </mxCell>
        <mxCell id="yClUdcWarPe3dw1EEp4e-23" value="next value" style="edgeStyle=orthogonalEdgeStyle;rounded=0;orthogonalLoop=1;jettySize=auto;html=1;" parent="1" source="yClUdcWarPe3dw1EEp4e-14" target="yClUdcWarPe3dw1EEp4e-19" edge="1">
          <mxGeometry relative="1" as="geometry" />
        </mxCell>
        <mxCell id="yClUdcWarPe3dw1EEp4e-14" value="case?" style="rhombus;whiteSpace=wrap;html=1;" parent="1" vertex="1">
          <mxGeometry x="265" y="820" width="80" height="80" as="geometry" />
        </mxCell>
        <mxCell id="yClUdcWarPe3dw1EEp4e-18" value="" style="rounded=0;whiteSpace=wrap;html=1;" parent="1" vertex="1">
          <mxGeometry x="70" y="930" width="120" height="60" as="geometry" />
        </mxCell>
        <mxCell id="yClUdcWarPe3dw1EEp4e-19" value="" style="rounded=0;whiteSpace=wrap;html=1;" parent="1" vertex="1">
          <mxGeometry x="245" y="1020" width="120" height="60" as="geometry" />
        </mxCell>
        <mxCell id="yClUdcWarPe3dw1EEp4e-20" value="" style="rounded=0;whiteSpace=wrap;html=1;" parent="1" vertex="1">
          <mxGeometry x="420" y="930" width="120" height="60" as="geometry" />
        </mxCell>
        <mxCell id="s47VxNDEgxssvNLZ4k6_-1" value="while i &amp;lt; n" style="html=1;dashed=0;whiteSpace=wrap;shape=mxgraph.dfd.loop" parent="1" vertex="1">
          <mxGeometry x="-360" y="500" width="80" height="30" as="geometry" />
        </mxCell>
        <mxCell id="s47VxNDEgxssvNLZ4k6_-2" value="initialize lists, j and k" style="rounded=0;whiteSpace=wrap;html=1;" parent="1" vertex="1">
          <mxGeometry x="-380" y="420" width="120" height="60" as="geometry" />
        </mxCell>
        <mxCell id="s47VxNDEgxssvNLZ4k6_-3" value="compute to_increase and to_add" style="rounded=0;whiteSpace=wrap;html=1;" parent="1" vertex="1">
          <mxGeometry x="-377.5" y="1000" width="120" height="60" as="geometry" />
        </mxCell>
        <mxCell id="s47VxNDEgxssvNLZ4k6_-17" style="edgeStyle=orthogonalEdgeStyle;rounded=0;orthogonalLoop=1;jettySize=auto;html=1;" parent="1" source="s47VxNDEgxssvNLZ4k6_-4" target="s47VxNDEgxssvNLZ4k6_-3" edge="1">
          <mxGeometry relative="1" as="geometry" />
        </mxCell>
        <mxCell id="s47VxNDEgxssvNLZ4k6_-4" value="Append to ds" style="rounded=0;whiteSpace=wrap;html=1;" parent="1" vertex="1">
          <mxGeometry x="-377.5" y="910" width="120" height="60" as="geometry" />
        </mxCell>
        <mxCell id="s47VxNDEgxssvNLZ4k6_-7" value="increase j" style="edgeStyle=orthogonalEdgeStyle;rounded=0;orthogonalLoop=1;jettySize=auto;html=1;" parent="1" source="s47VxNDEgxssvNLZ4k6_-10" target="s47VxNDEgxssvNLZ4k6_-11" edge="1">
          <mxGeometry relative="1" as="geometry" />
        </mxCell>
        <mxCell id="s47VxNDEgxssvNLZ4k6_-8" value="increase k" style="edgeStyle=orthogonalEdgeStyle;rounded=0;orthogonalLoop=1;jettySize=auto;html=1;" parent="1" source="s47VxNDEgxssvNLZ4k6_-10" target="s47VxNDEgxssvNLZ4k6_-13" edge="1">
          <mxGeometry relative="1" as="geometry" />
        </mxCell>
        <mxCell id="s47VxNDEgxssvNLZ4k6_-10" value="case?" style="rhombus;whiteSpace=wrap;html=1;" parent="1" vertex="1">
          <mxGeometry x="-357.5" y="610" width="80" height="80" as="geometry" />
        </mxCell>
        <mxCell id="s47VxNDEgxssvNLZ4k6_-16" style="edgeStyle=orthogonalEdgeStyle;rounded=0;orthogonalLoop=1;jettySize=auto;html=1;" parent="1" source="s47VxNDEgxssvNLZ4k6_-11" target="s47VxNDEgxssvNLZ4k6_-4" edge="1">
          <mxGeometry relative="1" as="geometry" />
        </mxCell>
        <mxCell id="s47VxNDEgxssvNLZ4k6_-11" value="" style="rounded=0;whiteSpace=wrap;html=1;" parent="1" vertex="1">
          <mxGeometry x="-542.5" y="770" width="120" height="60" as="geometry" />
        </mxCell>
        <mxCell id="s47VxNDEgxssvNLZ4k6_-15" style="edgeStyle=orthogonalEdgeStyle;rounded=0;orthogonalLoop=1;jettySize=auto;html=1;" parent="1" source="s47VxNDEgxssvNLZ4k6_-13" target="s47VxNDEgxssvNLZ4k6_-4" edge="1">
          <mxGeometry relative="1" as="geometry" />
        </mxCell>
        <mxCell id="s47VxNDEgxssvNLZ4k6_-13" value="" style="rounded=0;whiteSpace=wrap;html=1;" parent="1" vertex="1">
          <mxGeometry x="-217.5" y="770" width="120" height="60" as="geometry" />
        </mxCell>
        <mxCell id="s47VxNDEgxssvNLZ4k6_-14" value="while j &amp;lt; len(to_increase)" style="html=1;dashed=0;whiteSpace=wrap;shape=mxgraph.dfd.loop" parent="1" vertex="1">
          <mxGeometry x="-385" y="555" width="140" height="30" as="geometry" />
        </mxCell>
        <mxCell id="s47VxNDEgxssvNLZ4k6_-18" value="j == len(to_increase)" style="strokeWidth=2;html=1;shape=mxgraph.flowchart.loop_limit;whiteSpace=wrap;" parent="1" vertex="1">
          <mxGeometry x="-382.5" y="1090" width="130" height="60" as="geometry" />
        </mxCell>
        <mxCell id="s47VxNDEgxssvNLZ4k6_-19" value="i == n" style="strokeWidth=2;html=1;shape=mxgraph.flowchart.loop_limit;whiteSpace=wrap;" parent="1" vertex="1">
          <mxGeometry x="-382.5" y="1180" width="130" height="60" as="geometry" />
        </mxCell>
        <mxCell id="s47VxNDEgxssvNLZ4k6_-20" value="while i &amp;lt; n" style="html=1;dashed=0;whiteSpace=wrap;shape=mxgraph.dfd.loop" parent="1" vertex="1">
          <mxGeometry x="-927.5" y="500" width="80" height="30" as="geometry" />
        </mxCell>
        <mxCell id="s47VxNDEgxssvNLZ4k6_-21" value="initialize lists, j and k" style="rounded=0;whiteSpace=wrap;html=1;" parent="1" vertex="1">
          <mxGeometry x="-947.5" y="420" width="120" height="60" as="geometry" />
        </mxCell>
        <mxCell id="s47VxNDEgxssvNLZ4k6_-22" value="compute pairs" style="rounded=0;whiteSpace=wrap;html=1;" parent="1" vertex="1">
          <mxGeometry x="-945" y="1000" width="120" height="60" as="geometry" />
        </mxCell>
        <mxCell id="s47VxNDEgxssvNLZ4k6_-23" style="edgeStyle=orthogonalEdgeStyle;rounded=0;orthogonalLoop=1;jettySize=auto;html=1;" parent="1" source="s47VxNDEgxssvNLZ4k6_-24" target="s47VxNDEgxssvNLZ4k6_-22" edge="1">
          <mxGeometry relative="1" as="geometry" />
        </mxCell>
        <mxCell id="s47VxNDEgxssvNLZ4k6_-24" value="Append to ds" style="rounded=0;whiteSpace=wrap;html=1;" parent="1" vertex="1">
          <mxGeometry x="-945" y="910" width="120" height="60" as="geometry" />
        </mxCell>
        <mxCell id="s47VxNDEgxssvNLZ4k6_-25" value="increase j" style="edgeStyle=orthogonalEdgeStyle;rounded=0;orthogonalLoop=1;jettySize=auto;html=1;" parent="1" source="s47VxNDEgxssvNLZ4k6_-27" target="s47VxNDEgxssvNLZ4k6_-29" edge="1">
          <mxGeometry relative="1" as="geometry" />
        </mxCell>
        <mxCell id="s47VxNDEgxssvNLZ4k6_-26" value="increase k" style="edgeStyle=orthogonalEdgeStyle;rounded=0;orthogonalLoop=1;jettySize=auto;html=1;" parent="1" source="s47VxNDEgxssvNLZ4k6_-27" target="s47VxNDEgxssvNLZ4k6_-31" edge="1">
          <mxGeometry relative="1" as="geometry" />
        </mxCell>
        <mxCell id="s47VxNDEgxssvNLZ4k6_-27" value="case?" style="rhombus;whiteSpace=wrap;html=1;" parent="1" vertex="1">
          <mxGeometry x="-925" y="610" width="80" height="80" as="geometry" />
        </mxCell>
        <mxCell id="s47VxNDEgxssvNLZ4k6_-28" style="edgeStyle=orthogonalEdgeStyle;rounded=0;orthogonalLoop=1;jettySize=auto;html=1;" parent="1" source="s47VxNDEgxssvNLZ4k6_-29" target="s47VxNDEgxssvNLZ4k6_-24" edge="1">
          <mxGeometry relative="1" as="geometry" />
        </mxCell>
        <mxCell id="s47VxNDEgxssvNLZ4k6_-29" value="" style="rounded=0;whiteSpace=wrap;html=1;" parent="1" vertex="1">
          <mxGeometry x="-1110" y="770" width="120" height="60" as="geometry" />
        </mxCell>
        <mxCell id="s47VxNDEgxssvNLZ4k6_-30" style="edgeStyle=orthogonalEdgeStyle;rounded=0;orthogonalLoop=1;jettySize=auto;html=1;" parent="1" source="s47VxNDEgxssvNLZ4k6_-31" target="s47VxNDEgxssvNLZ4k6_-24" edge="1">
          <mxGeometry relative="1" as="geometry" />
        </mxCell>
        <mxCell id="s47VxNDEgxssvNLZ4k6_-31" value="" style="rounded=0;whiteSpace=wrap;html=1;" parent="1" vertex="1">
          <mxGeometry x="-785" y="770" width="120" height="60" as="geometry" />
        </mxCell>
        <mxCell id="s47VxNDEgxssvNLZ4k6_-32" value="while has pairs" style="html=1;dashed=0;whiteSpace=wrap;shape=mxgraph.dfd.loop" parent="1" vertex="1">
          <mxGeometry x="-952.5" y="555" width="140" height="30" as="geometry" />
        </mxCell>
        <mxCell id="s47VxNDEgxssvNLZ4k6_-33" value="no more pairs" style="strokeWidth=2;html=1;shape=mxgraph.flowchart.loop_limit;whiteSpace=wrap;" parent="1" vertex="1">
          <mxGeometry x="-950" y="1090" width="130" height="60" as="geometry" />
        </mxCell>
        <mxCell id="s47VxNDEgxssvNLZ4k6_-34" value="i == n" style="strokeWidth=2;html=1;shape=mxgraph.flowchart.loop_limit;whiteSpace=wrap;" parent="1" vertex="1">
          <mxGeometry x="-950" y="1180" width="130" height="60" as="geometry" />
        </mxCell>
        <mxCell id="s47VxNDEgxssvNLZ4k6_-37" value="DS: (decib, value)" style="text;html=1;strokeColor=none;fillColor=none;align=center;verticalAlign=middle;whiteSpace=wrap;rounded=0;" parent="1" vertex="1">
          <mxGeometry x="-1620" y="660" width="120" height="30" as="geometry" />
        </mxCell>
        <mxCell id="s47VxNDEgxssvNLZ4k6_-38" value="DS2: [ [], [% 10] [% 100]]" style="text;html=1;strokeColor=none;fillColor=none;align=center;verticalAlign=middle;whiteSpace=wrap;rounded=0;" parent="1" vertex="1">
          <mxGeometry x="-1610" y="700" width="150" height="30" as="geometry" />
        </mxCell>
        <mxCell id="P3GAiLMyHzw7v-3m2dS9-1" value="Co(5) = A5 + B5 - C5" style="text;html=1;align=center;verticalAlign=middle;resizable=0;points=[];autosize=1;strokeColor=none;fillColor=none;" parent="1" vertex="1">
          <mxGeometry x="-1660" y="910" width="140" height="30" as="geometry" />
        </mxCell>
        <mxCell id="P3GAiLMyHzw7v-3m2dS9-2" value="A5 = S4" style="text;html=1;align=center;verticalAlign=middle;resizable=0;points=[];autosize=1;strokeColor=none;fillColor=none;" parent="1" vertex="1">
          <mxGeometry x="-1660" y="960" width="70" height="30" as="geometry" />
        </mxCell>
        <mxCell id="P3GAiLMyHzw7v-3m2dS9-3" value="S1 = A1 + B1" style="text;html=1;align=center;verticalAlign=middle;resizable=0;points=[];autosize=1;strokeColor=none;fillColor=none;" parent="1" vertex="1">
          <mxGeometry x="-1565" y="960" width="90" height="30" as="geometry" />
        </mxCell>
        <mxCell id="P3GAiLMyHzw7v-3m2dS9-4" value="B5 = S(5/2))" style="text;html=1;align=center;verticalAlign=middle;resizable=0;points=[];autosize=1;strokeColor=none;fillColor=none;" parent="1" vertex="1">
          <mxGeometry x="-1660" y="1000" width="90" height="30" as="geometry" />
        </mxCell>
        <mxCell id="P3GAiLMyHzw7v-3m2dS9-5" value="C5 = A1" style="text;html=1;align=center;verticalAlign=middle;resizable=0;points=[];autosize=1;strokeColor=none;fillColor=none;" parent="1" vertex="1">
          <mxGeometry x="-1660" y="1040" width="70" height="30" as="geometry" />
        </mxCell>
        <mxCell id="P3GAiLMyHzw7v-3m2dS9-6" value="C5 = A1" style="text;html=1;align=center;verticalAlign=middle;resizable=0;points=[];autosize=1;strokeColor=none;fillColor=none;" parent="1" vertex="1">
          <mxGeometry x="-1650" y="1190" width="70" height="30" as="geometry" />
        </mxCell>
        <mxCell id="P3GAiLMyHzw7v-3m2dS9-8" value="Co(5) = S4 + Co(5//2) - A1" style="text;html=1;align=center;verticalAlign=middle;resizable=0;points=[];autosize=1;strokeColor=none;fillColor=none;" parent="1" vertex="1">
          <mxGeometry x="-1665" y="1090" width="160" height="30" as="geometry" />
        </mxCell>
        <mxCell id="P3GAiLMyHzw7v-3m2dS9-9" value="Co(5) = A4 + B4 + A2 +B2 - C2 - A1" style="text;html=1;align=center;verticalAlign=middle;resizable=0;points=[];autosize=1;strokeColor=none;fillColor=none;" parent="1" vertex="1">
          <mxGeometry x="-1650" y="1130" width="210" height="30" as="geometry" />
        </mxCell>
        <mxCell id="-R0Hb9f2ttLyKWl6-j34-1" value="Generate index&amp;nbsp;" style="rounded=0;whiteSpace=wrap;html=1;" parent="1" vertex="1">
          <mxGeometry x="-1970" y="170" width="120" height="60" as="geometry" />
        </mxCell>
        <mxCell id="-R0Hb9f2ttLyKWl6-j34-2" value="Search x in list_val_index" style="rounded=0;whiteSpace=wrap;html=1;" parent="1" vertex="1">
          <mxGeometry x="-2360" y="420" width="120" height="60" as="geometry" />
        </mxCell>
        <mxCell id="-R0Hb9f2ttLyKWl6-j34-3" value="[(index, val)]" style="text;html=1;align=center;verticalAlign=middle;resizable=0;points=[];autosize=1;strokeColor=none;fillColor=none;" parent="1" vertex="1">
          <mxGeometry x="-2190" y="435" width="90" height="30" as="geometry" />
        </mxCell>
        <mxCell id="-R0Hb9f2ttLyKWl6-j34-6" style="edgeStyle=orthogonalEdgeStyle;rounded=0;orthogonalLoop=1;jettySize=auto;html=1;" parent="1" source="-R0Hb9f2ttLyKWl6-j34-5" target="-R0Hb9f2ttLyKWl6-j34-10" edge="1">
          <mxGeometry relative="1" as="geometry">
            <mxPoint x="-2450" y="640" as="targetPoint" />
            <Array as="points">
              <mxPoint x="-2440" y="570" />
              <mxPoint x="-2440" y="770" />
            </Array>
          </mxGeometry>
        </mxCell>
        <mxCell id="-R0Hb9f2ttLyKWl6-j34-9" style="edgeStyle=orthogonalEdgeStyle;rounded=0;orthogonalLoop=1;jettySize=auto;html=1;" parent="1" source="-R0Hb9f2ttLyKWl6-j34-5" target="-R0Hb9f2ttLyKWl6-j34-8" edge="1">
          <mxGeometry relative="1" as="geometry" />
        </mxCell>
        <mxCell id="-R0Hb9f2ttLyKWl6-j34-5" value="if value larger exists" style="rhombus;whiteSpace=wrap;html=1;" parent="1" vertex="1">
          <mxGeometry x="-2350" y="520" width="100" height="100" as="geometry" />
        </mxCell>
        <mxCell id="-R0Hb9f2ttLyKWl6-j34-11" style="edgeStyle=orthogonalEdgeStyle;rounded=0;orthogonalLoop=1;jettySize=auto;html=1;" parent="1" source="-R0Hb9f2ttLyKWl6-j34-8" target="-R0Hb9f2ttLyKWl6-j34-10" edge="1">
          <mxGeometry relative="1" as="geometry" />
        </mxCell>
        <mxCell id="-R0Hb9f2ttLyKWl6-j34-8" value="Generate until larger exists" style="rounded=0;whiteSpace=wrap;html=1;" parent="1" vertex="1">
          <mxGeometry x="-2190" y="640" width="120" height="60" as="geometry" />
        </mxCell>
        <mxCell id="-R0Hb9f2ttLyKWl6-j34-10" value="Get val of smaller" style="rounded=0;whiteSpace=wrap;html=1;" parent="1" vertex="1">
          <mxGeometry x="-2360" y="740" width="120" height="60" as="geometry" />
        </mxCell>
        <mxCell id="-R0Hb9f2ttLyKWl6-j34-12" value="Compute remaining index" style="rounded=0;whiteSpace=wrap;html=1;" parent="1" vertex="1">
          <mxGeometry x="-2360" y="840" width="120" height="60" as="geometry" />
        </mxCell>
        <mxCell id="-R0Hb9f2ttLyKWl6-j34-15" value="Search for odd/even, sum greater than rem" style="rounded=0;whiteSpace=wrap;html=1;" parent="1" vertex="1">
          <mxGeometry x="-2360" y="1010" width="120" height="60" as="geometry" />
        </mxCell>
        <mxCell id="-R0Hb9f2ttLyKWl6-j34-16" value="{odd/even: [[series1], [series2]]}" style="text;html=1;align=center;verticalAlign=middle;resizable=0;points=[];autosize=1;strokeColor=none;fillColor=none;" parent="1" vertex="1">
          <mxGeometry x="-2225" y="1025" width="190" height="30" as="geometry" />
        </mxCell>
        <mxCell id="-R0Hb9f2ttLyKWl6-j34-18" value="Check if odd or even" style="rounded=0;whiteSpace=wrap;html=1;" parent="1" vertex="1">
          <mxGeometry x="-2360" y="930" width="120" height="60" as="geometry" />
        </mxCell>
        <mxCell id="-R0Hb9f2ttLyKWl6-j34-23" style="edgeStyle=orthogonalEdgeStyle;rounded=0;orthogonalLoop=1;jettySize=auto;html=1;entryX=0;entryY=0.5;entryDx=0;entryDy=0;" parent="1" source="-R0Hb9f2ttLyKWl6-j34-25" target="-R0Hb9f2ttLyKWl6-j34-28" edge="1">
          <mxGeometry relative="1" as="geometry">
            <mxPoint x="-2450" y="1210" as="targetPoint" />
            <Array as="points">
              <mxPoint x="-2410" y="1140" />
              <mxPoint x="-2410" y="1340" />
            </Array>
          </mxGeometry>
        </mxCell>
        <mxCell id="-R0Hb9f2ttLyKWl6-j34-24" style="edgeStyle=orthogonalEdgeStyle;rounded=0;orthogonalLoop=1;jettySize=auto;html=1;" parent="1" source="-R0Hb9f2ttLyKWl6-j34-25" target="-R0Hb9f2ttLyKWl6-j34-27" edge="1">
          <mxGeometry relative="1" as="geometry" />
        </mxCell>
        <mxCell id="-R0Hb9f2ttLyKWl6-j34-25" value="if value larger exists" style="rhombus;whiteSpace=wrap;html=1;" parent="1" vertex="1">
          <mxGeometry x="-2350" y="1090" width="100" height="100" as="geometry" />
        </mxCell>
        <mxCell id="-R0Hb9f2ttLyKWl6-j34-26" style="edgeStyle=orthogonalEdgeStyle;rounded=0;orthogonalLoop=1;jettySize=auto;html=1;" parent="1" source="-R0Hb9f2ttLyKWl6-j34-27" target="-R0Hb9f2ttLyKWl6-j34-28" edge="1">
          <mxGeometry relative="1" as="geometry" />
        </mxCell>
        <mxCell id="-R0Hb9f2ttLyKWl6-j34-27" value="Generate until larger exists" style="rounded=0;whiteSpace=wrap;html=1;" parent="1" vertex="1">
          <mxGeometry x="-2190" y="1210" width="120" height="60" as="geometry" />
        </mxCell>
        <mxCell id="-R0Hb9f2ttLyKWl6-j34-28" value="Get val of smaller" style="rounded=0;whiteSpace=wrap;html=1;" parent="1" vertex="1">
          <mxGeometry x="-2350" y="1310" width="120" height="60" as="geometry" />
        </mxCell>
        <mxCell id="-R0Hb9f2ttLyKWl6-j34-29" value="or 5**len greater than rem" style="rounded=0;whiteSpace=wrap;html=1;" parent="1" vertex="1">
          <mxGeometry x="-2510" y="1010" width="120" height="60" as="geometry" />
        </mxCell>
        <mxCell id="-R0Hb9f2ttLyKWl6-j34-31" value="while rem!= 0" style="html=1;dashed=0;whiteSpace=wrap;shape=mxgraph.dfd.loop" parent="1" vertex="1">
          <mxGeometry x="-2340" y="1410" width="80" height="30" as="geometry" />
        </mxCell>
        <mxCell id="-R0Hb9f2ttLyKWl6-j34-33" value="Compute next&amp;nbsp;" style="rounded=0;whiteSpace=wrap;html=1;" parent="1" vertex="1">
          <mxGeometry x="-2360" y="1470" width="120" height="60" as="geometry" />
        </mxCell>
        <mxCell id="-R0Hb9f2ttLyKWl6-j34-37" value="yes" style="edgeStyle=orthogonalEdgeStyle;rounded=0;orthogonalLoop=1;jettySize=auto;html=1;" parent="1" source="-R0Hb9f2ttLyKWl6-j34-34" target="-R0Hb9f2ttLyKWl6-j34-36" edge="1">
          <mxGeometry relative="1" as="geometry" />
        </mxCell>
        <mxCell id="-R0Hb9f2ttLyKWl6-j34-38" style="edgeStyle=orthogonalEdgeStyle;rounded=0;orthogonalLoop=1;jettySize=auto;html=1;" parent="1" source="-R0Hb9f2ttLyKWl6-j34-34" target="-R0Hb9f2ttLyKWl6-j34-39" edge="1">
          <mxGeometry relative="1" as="geometry">
            <mxPoint x="-2130" y="1650" as="targetPoint" />
            <Array as="points">
              <mxPoint x="-2130" y="1605" />
            </Array>
          </mxGeometry>
        </mxCell>
        <mxCell id="-R0Hb9f2ttLyKWl6-j34-34" value="if next less than rem:" style="rhombus;whiteSpace=wrap;html=1;" parent="1" vertex="1">
          <mxGeometry x="-2355" y="1550" width="110" height="110" as="geometry" />
        </mxCell>
        <mxCell id="-R0Hb9f2ttLyKWl6-j34-42" style="edgeStyle=orthogonalEdgeStyle;rounded=0;orthogonalLoop=1;jettySize=auto;html=1;" parent="1" source="-R0Hb9f2ttLyKWl6-j34-36" target="-R0Hb9f2ttLyKWl6-j34-40" edge="1">
          <mxGeometry relative="1" as="geometry" />
        </mxCell>
        <mxCell id="-R0Hb9f2ttLyKWl6-j34-36" value="update rem and index" style="rounded=0;whiteSpace=wrap;html=1;" parent="1" vertex="1">
          <mxGeometry x="-2530" y="1665" width="120" height="60" as="geometry" />
        </mxCell>
        <mxCell id="-R0Hb9f2ttLyKWl6-j34-41" style="edgeStyle=orthogonalEdgeStyle;rounded=0;orthogonalLoop=1;jettySize=auto;html=1;" parent="1" source="-R0Hb9f2ttLyKWl6-j34-39" target="-R0Hb9f2ttLyKWl6-j34-40" edge="1">
          <mxGeometry relative="1" as="geometry" />
        </mxCell>
        <mxCell id="-R0Hb9f2ttLyKWl6-j34-39" value="Set finer granularity" style="rounded=0;whiteSpace=wrap;html=1;" parent="1" vertex="1">
          <mxGeometry x="-2190" y="1665" width="120" height="60" as="geometry" />
        </mxCell>
        <mxCell id="-R0Hb9f2ttLyKWl6-j34-40" value="continue" style="rounded=0;whiteSpace=wrap;html=1;" parent="1" vertex="1">
          <mxGeometry x="-2360" y="1760" width="120" height="60" as="geometry" />
        </mxCell>
        <mxCell id="-R0Hb9f2ttLyKWl6-j34-49" style="edgeStyle=orthogonalEdgeStyle;rounded=0;orthogonalLoop=1;jettySize=auto;html=1;" parent="1" source="-R0Hb9f2ttLyKWl6-j34-43" target="-R0Hb9f2ttLyKWl6-j34-48" edge="1">
          <mxGeometry relative="1" as="geometry" />
        </mxCell>
        <mxCell id="-R0Hb9f2ttLyKWl6-j34-43" value="Build Base Case" style="rounded=0;whiteSpace=wrap;html=1;" parent="1" vertex="1">
          <mxGeometry x="-2820" y="565" width="120" height="60" as="geometry" />
        </mxCell>
        <mxCell id="-R0Hb9f2ttLyKWl6-j34-45" style="edgeStyle=orthogonalEdgeStyle;rounded=0;orthogonalLoop=1;jettySize=auto;html=1;" parent="1" source="-R0Hb9f2ttLyKWl6-j34-44" target="-R0Hb9f2ttLyKWl6-j34-43" edge="1">
          <mxGeometry relative="1" as="geometry" />
        </mxCell>
        <mxCell id="-R0Hb9f2ttLyKWl6-j34-47" style="edgeStyle=orthogonalEdgeStyle;rounded=0;orthogonalLoop=1;jettySize=auto;html=1;" parent="1" source="-R0Hb9f2ttLyKWl6-j34-44" target="-R0Hb9f2ttLyKWl6-j34-46" edge="1">
          <mxGeometry relative="1" as="geometry" />
        </mxCell>
        <mxCell id="-R0Hb9f2ttLyKWl6-j34-44" value="list_index exists" style="rhombus;whiteSpace=wrap;html=1;" parent="1" vertex="1">
          <mxGeometry x="-2920" y="435" width="80" height="80" as="geometry" />
        </mxCell>
        <mxCell id="-R0Hb9f2ttLyKWl6-j34-50" style="edgeStyle=orthogonalEdgeStyle;rounded=0;orthogonalLoop=1;jettySize=auto;html=1;" parent="1" source="-R0Hb9f2ttLyKWl6-j34-46" target="-R0Hb9f2ttLyKWl6-j34-48" edge="1">
          <mxGeometry relative="1" as="geometry" />
        </mxCell>
        <mxCell id="-R0Hb9f2ttLyKWl6-j34-46" value="Continue From Last" style="rounded=0;whiteSpace=wrap;html=1;fontStyle=0" parent="1" vertex="1">
          <mxGeometry x="-3070" y="565" width="120" height="60" as="geometry" />
        </mxCell>
        <mxCell id="-R0Hb9f2ttLyKWl6-j34-48" value="while x &amp;lt; last[0] (even)&lt;br&gt;while&amp;nbsp;x &amp;lt; last[1] (odd)" style="rounded=0;whiteSpace=wrap;html=1;dashed=0;shape=mxgraph.dfd.loop;" parent="1" vertex="1">
          <mxGeometry x="-2950" y="695" width="140" height="60" as="geometry" />
        </mxCell>
        <mxCell id="-R0Hb9f2ttLyKWl6-j34-51" value="Compute next" style="rounded=0;whiteSpace=wrap;html=1;" parent="1" vertex="1">
          <mxGeometry x="-2950" y="795" width="140" height="60" as="geometry" />
        </mxCell>
        <mxCell id="-R0Hb9f2ttLyKWl6-j34-55" value="questions:&lt;br&gt;&lt;br&gt;" style="text;html=1;align=center;verticalAlign=middle;resizable=0;points=[];autosize=1;strokeColor=none;fillColor=none;" parent="1" vertex="1">
          <mxGeometry x="-3500" y="900" width="80" height="40" as="geometry" />
        </mxCell>
        <mxCell id="-R0Hb9f2ttLyKWl6-j34-56" value="possible for i_start &amp;gt; 4" style="text;html=1;align=center;verticalAlign=middle;resizable=0;points=[];autosize=1;strokeColor=none;fillColor=none;" parent="1" vertex="1">
          <mxGeometry x="-3510" y="940" width="140" height="30" as="geometry" />
        </mxCell>
        <mxCell id="-R0Hb9f2ttLyKWl6-j34-57" value="cur_digit == 0" style="text;html=1;align=center;verticalAlign=middle;resizable=0;points=[];autosize=1;strokeColor=none;fillColor=none;" parent="1" vertex="1">
          <mxGeometry x="-3500" y="975" width="100" height="30" as="geometry" />
        </mxCell>
        <mxCell id="-TNxuVT8YTeCEYYclyY9-1" value="{log(exp): {rem:[]}}" style="text;html=1;align=center;verticalAlign=middle;resizable=0;points=[];autosize=1;strokeColor=none;fillColor=none;" parent="1" vertex="1">
          <mxGeometry x="-3650" y="1510" width="120" height="30" as="geometry" />
        </mxCell>
        <mxCell id="-TNxuVT8YTeCEYYclyY9-2" value="while rem!= 0" style="html=1;dashed=0;whiteSpace=wrap;shape=mxgraph.dfd.loop" parent="1" vertex="1">
          <mxGeometry x="-3230" y="1290" width="80" height="30" as="geometry" />
        </mxCell>
        <mxCell id="-TNxuVT8YTeCEYYclyY9-3" value="Compute next&amp;nbsp;" style="rounded=0;whiteSpace=wrap;html=1;" parent="1" vertex="1">
          <mxGeometry x="-3630" y="1300" width="120" height="60" as="geometry" />
        </mxCell>
        <mxCell id="-TNxuVT8YTeCEYYclyY9-4" value="yes" style="edgeStyle=orthogonalEdgeStyle;rounded=0;orthogonalLoop=1;jettySize=auto;html=1;" parent="1" source="-TNxuVT8YTeCEYYclyY9-6" target="-TNxuVT8YTeCEYYclyY9-8" edge="1">
          <mxGeometry relative="1" as="geometry" />
        </mxCell>
        <mxCell id="-TNxuVT8YTeCEYYclyY9-5" style="edgeStyle=orthogonalEdgeStyle;rounded=0;orthogonalLoop=1;jettySize=auto;html=1;" parent="1" source="-TNxuVT8YTeCEYYclyY9-6" target="-TNxuVT8YTeCEYYclyY9-10" edge="1">
          <mxGeometry relative="1" as="geometry">
            <mxPoint x="-3050" y="1950" as="targetPoint" />
            <Array as="points">
              <mxPoint x="-3050" y="1905" />
            </Array>
          </mxGeometry>
        </mxCell>
        <mxCell id="-TNxuVT8YTeCEYYclyY9-6" value="if next less than rem:" style="rhombus;whiteSpace=wrap;html=1;" parent="1" vertex="1">
          <mxGeometry x="-3275" y="1850" width="110" height="110" as="geometry" />
        </mxCell>
        <mxCell id="-TNxuVT8YTeCEYYclyY9-7" style="edgeStyle=orthogonalEdgeStyle;rounded=0;orthogonalLoop=1;jettySize=auto;html=1;" parent="1" source="-TNxuVT8YTeCEYYclyY9-8" target="-TNxuVT8YTeCEYYclyY9-11" edge="1">
          <mxGeometry relative="1" as="geometry" />
        </mxCell>
        <mxCell id="-TNxuVT8YTeCEYYclyY9-8" value="update rem and index" style="rounded=0;whiteSpace=wrap;html=1;" parent="1" vertex="1">
          <mxGeometry x="-3450" y="1965" width="120" height="60" as="geometry" />
        </mxCell>
        <mxCell id="-TNxuVT8YTeCEYYclyY9-9" style="edgeStyle=orthogonalEdgeStyle;rounded=0;orthogonalLoop=1;jettySize=auto;html=1;" parent="1" source="-TNxuVT8YTeCEYYclyY9-10" target="-TNxuVT8YTeCEYYclyY9-11" edge="1">
          <mxGeometry relative="1" as="geometry" />
        </mxCell>
        <mxCell id="-TNxuVT8YTeCEYYclyY9-10" value="Set finer granularity" style="rounded=0;whiteSpace=wrap;html=1;" parent="1" vertex="1">
          <mxGeometry x="-3110" y="1965" width="120" height="60" as="geometry" />
        </mxCell>
        <mxCell id="-TNxuVT8YTeCEYYclyY9-11" value="continue" style="rounded=0;whiteSpace=wrap;html=1;" parent="1" vertex="1">
          <mxGeometry x="-3280" y="2060" width="120" height="60" as="geometry" />
        </mxCell>
        <mxCell id="-TNxuVT8YTeCEYYclyY9-12" value="pv = get log5 of rem" style="rounded=0;whiteSpace=wrap;html=1;" parent="1" vertex="1">
          <mxGeometry x="-3250" y="1350" width="120" height="60" as="geometry" />
        </mxCell>
        <mxCell id="-TNxuVT8YTeCEYYclyY9-13" value="mod_val = get 2**pv" style="rounded=0;whiteSpace=wrap;html=1;" parent="1" vertex="1">
          <mxGeometry x="-3250" y="1430" width="120" height="60" as="geometry" />
        </mxCell>
        <mxCell id="-TNxuVT8YTeCEYYclyY9-14" value="if next less than rem:" style="rhombus;whiteSpace=wrap;html=1;" parent="1" vertex="1">
          <mxGeometry x="-3630" y="1820" width="110" height="110" as="geometry" />
        </mxCell>
        <mxCell id="-TNxuVT8YTeCEYYclyY9-15" value="mod_rem =&amp;nbsp; rem_val % mod_val" style="rounded=0;whiteSpace=wrap;html=1;" parent="1" vertex="1">
          <mxGeometry x="-3250" y="1510" width="120" height="60" as="geometry" />
        </mxCell>
        <mxCell id="-TNxuVT8YTeCEYYclyY9-16" value="rem_val = value" style="whiteSpace=wrap;html=1;" parent="1" vertex="1">
          <mxGeometry x="-3250" y="1190" width="120" height="60" as="geometry" />
        </mxCell>
        <mxCell id="-TNxuVT8YTeCEYYclyY9-17" value="Highest counts lower than rem (fast shrink)" style="text;html=1;align=center;verticalAlign=middle;resizable=0;points=[];autosize=1;strokeColor=none;fillColor=none;" parent="1" vertex="1">
          <mxGeometry x="-3110" y="1365" width="250" height="30" as="geometry" />
        </mxCell>
        <mxCell id="-TNxuVT8YTeCEYYclyY9-18" value="will be used to&amp;nbsp; compute mod_rem" style="text;html=1;align=center;verticalAlign=middle;resizable=0;points=[];autosize=1;strokeColor=none;fillColor=none;" parent="1" vertex="1">
          <mxGeometry x="-3100" y="1445" width="210" height="30" as="geometry" />
        </mxCell>
        <mxCell id="-TNxuVT8YTeCEYYclyY9-19" value="will be used to generate dict_counts" style="text;html=1;align=center;verticalAlign=middle;resizable=0;points=[];autosize=1;strokeColor=none;fillColor=none;" parent="1" vertex="1">
          <mxGeometry x="-3090" y="1525" width="210" height="30" as="geometry" />
        </mxCell>
        <mxCell id="-TNxuVT8YTeCEYYclyY9-21" value="compute dict_counts[pv][mod_rem]" style="rounded=0;whiteSpace=wrap;html=1;" parent="1" vertex="1">
          <mxGeometry x="-3250" y="1590" width="120" height="60" as="geometry" />
        </mxCell>
        <mxCell id="-TNxuVT8YTeCEYYclyY9-22" value="compute new decib, new index, new rem" style="rounded=0;whiteSpace=wrap;html=1;" parent="1" vertex="1">
          <mxGeometry x="-3250" y="1670" width="120" height="60" as="geometry" />
        </mxCell>
        <mxCell id="-TNxuVT8YTeCEYYclyY9-23" value="Recursively" style="text;html=1;align=center;verticalAlign=middle;resizable=0;points=[];autosize=1;strokeColor=none;fillColor=none;" parent="1" vertex="1">
          <mxGeometry x="-3090" y="1605" width="90" height="30" as="geometry" />
        </mxCell>
        <mxCell id="-TNxuVT8YTeCEYYclyY9-24" value="Generate Dict" style="text;html=1;align=center;verticalAlign=middle;resizable=0;points=[];autosize=1;strokeColor=none;fillColor=none;" parent="1" vertex="1">
          <mxGeometry x="-3850" y="1190" width="100" height="30" as="geometry" />
        </mxCell>
        <mxCell id="t15liTDaATsOu2nz4iLN-1" value="while rem!= 0" style="html=1;dashed=0;whiteSpace=wrap;shape=mxgraph.dfd.loop" parent="1" vertex="1">
          <mxGeometry x="-4360" y="1280" width="80" height="30" as="geometry" />
        </mxCell>
        <mxCell id="t15liTDaATsOu2nz4iLN-3" value="mod_val = get 2**pv" style="rounded=0;whiteSpace=wrap;html=1;" parent="1" vertex="1">
          <mxGeometry x="-4380" y="1345" width="120" height="60" as="geometry" />
        </mxCell>
        <mxCell id="t15liTDaATsOu2nz4iLN-4" value="mod_rem =&amp;nbsp; rem_val % mod_val" style="rounded=0;whiteSpace=wrap;html=1;" parent="1" vertex="1">
          <mxGeometry x="-4380" y="1425" width="120" height="60" as="geometry" />
        </mxCell>
        <mxCell id="t15liTDaATsOu2nz4iLN-5" value="rem_val = value" style="whiteSpace=wrap;html=1;" parent="1" vertex="1">
          <mxGeometry x="-4380" y="1120" width="120" height="60" as="geometry" />
        </mxCell>
        <mxCell id="t15liTDaATsOu2nz4iLN-6" value="Highest counts lower than rem (fast shrink)" style="text;html=1;align=center;verticalAlign=middle;resizable=0;points=[];autosize=1;strokeColor=none;fillColor=none;" parent="1" vertex="1">
          <mxGeometry x="-4240" y="1220" width="250" height="30" as="geometry" />
        </mxCell>
        <mxCell id="t15liTDaATsOu2nz4iLN-7" value="will be used to&amp;nbsp; compute mod_rem" style="text;html=1;align=center;verticalAlign=middle;resizable=0;points=[];autosize=1;strokeColor=none;fillColor=none;" parent="1" vertex="1">
          <mxGeometry x="-4230" y="1360" width="210" height="30" as="geometry" />
        </mxCell>
        <mxCell id="t15liTDaATsOu2nz4iLN-8" value="will be used to generate dict_counts" style="text;html=1;align=center;verticalAlign=middle;resizable=0;points=[];autosize=1;strokeColor=none;fillColor=none;" parent="1" vertex="1">
          <mxGeometry x="-4220" y="1440" width="210" height="30" as="geometry" />
        </mxCell>
        <mxCell id="t15liTDaATsOu2nz4iLN-9" value="get list counts = dict_counts[pv][mod_rem]" style="rounded=0;whiteSpace=wrap;html=1;" parent="1" vertex="1">
          <mxGeometry x="-4380" y="1505" width="120" height="60" as="geometry" />
        </mxCell>
        <mxCell id="t15liTDaATsOu2nz4iLN-10" value="get subset where cumsum &amp;lt; rem" style="rounded=0;whiteSpace=wrap;html=1;" parent="1" vertex="1">
          <mxGeometry x="-4380" y="1735" width="120" height="60" as="geometry" />
        </mxCell>
        <mxCell id="t15liTDaATsOu2nz4iLN-11" value="Recursively" style="text;html=1;align=center;verticalAlign=middle;resizable=0;points=[];autosize=1;strokeColor=none;fillColor=none;" parent="1" vertex="1">
          <mxGeometry x="-4220" y="1520" width="90" height="30" as="geometry" />
        </mxCell>
        <mxCell id="t15liTDaATsOu2nz4iLN-12" value="Get actual sublist" style="rounded=0;whiteSpace=wrap;html=1;" parent="1" vertex="1">
          <mxGeometry x="-4380" y="1650" width="120" height="60" as="geometry" />
        </mxCell>
        <mxCell id="t15liTDaATsOu2nz4iLN-13" value="Compute mod_var" style="rounded=0;whiteSpace=wrap;html=1;" parent="1" vertex="1">
          <mxGeometry x="-4380" y="1575" width="120" height="60" as="geometry" />
        </mxCell>
        <mxCell id="t15liTDaATsOu2nz4iLN-21" value="max" style="edgeStyle=orthogonalEdgeStyle;rounded=0;orthogonalLoop=1;jettySize=auto;html=1;" parent="1" source="t15liTDaATsOu2nz4iLN-15" target="t15liTDaATsOu2nz4iLN-20" edge="1">
          <mxGeometry relative="1" as="geometry" />
        </mxCell>
        <mxCell id="t15liTDaATsOu2nz4iLN-23" value="" style="edgeStyle=orthogonalEdgeStyle;rounded=0;orthogonalLoop=1;jettySize=auto;html=1;" parent="1" source="t15liTDaATsOu2nz4iLN-15" target="t15liTDaATsOu2nz4iLN-22" edge="1">
          <mxGeometry relative="1" as="geometry" />
        </mxCell>
        <mxCell id="t15liTDaATsOu2nz4iLN-24" value="0" style="edgeStyle=orthogonalEdgeStyle;rounded=0;orthogonalLoop=1;jettySize=auto;html=1;" parent="1" source="t15liTDaATsOu2nz4iLN-15" target="t15liTDaATsOu2nz4iLN-22" edge="1">
          <mxGeometry relative="1" as="geometry" />
        </mxCell>
        <mxCell id="t15liTDaATsOu2nz4iLN-26" value="positive" style="edgeStyle=orthogonalEdgeStyle;rounded=0;orthogonalLoop=1;jettySize=auto;html=1;" parent="1" source="t15liTDaATsOu2nz4iLN-15" target="t15liTDaATsOu2nz4iLN-25" edge="1">
          <mxGeometry relative="1" as="geometry" />
        </mxCell>
        <mxCell id="t15liTDaATsOu2nz4iLN-15" value="increase" style="rhombus;whiteSpace=wrap;html=1;" parent="1" vertex="1">
          <mxGeometry x="-4360" y="1845" width="80" height="80" as="geometry" />
        </mxCell>
        <mxCell id="t15liTDaATsOu2nz4iLN-17" value="" style="rounded=0;whiteSpace=wrap;html=1;" parent="1" vertex="1">
          <mxGeometry x="-4060" y="1655" width="120" height="60" as="geometry" />
        </mxCell>
        <mxCell id="t15liTDaATsOu2nz4iLN-30" style="edgeStyle=orthogonalEdgeStyle;rounded=0;orthogonalLoop=1;jettySize=auto;html=1;entryX=1;entryY=0.5;entryDx=0;entryDy=0;" parent="1" source="t15liTDaATsOu2nz4iLN-20" target="t15liTDaATsOu2nz4iLN-29" edge="1">
          <mxGeometry relative="1" as="geometry">
            <Array as="points">
              <mxPoint x="-4090" y="2435" />
            </Array>
          </mxGeometry>
        </mxCell>
        <mxCell id="t15liTDaATsOu2nz4iLN-20" value="increase cur_pv?" style="whiteSpace=wrap;html=1;" parent="1" vertex="1">
          <mxGeometry x="-4150" y="1855" width="120" height="60" as="geometry" />
        </mxCell>
        <mxCell id="t15liTDaATsOu2nz4iLN-31" style="edgeStyle=orthogonalEdgeStyle;rounded=0;orthogonalLoop=1;jettySize=auto;html=1;entryX=0;entryY=0.5;entryDx=0;entryDy=0;" parent="1" source="t15liTDaATsOu2nz4iLN-22" target="t15liTDaATsOu2nz4iLN-29" edge="1">
          <mxGeometry relative="1" as="geometry">
            <Array as="points">
              <mxPoint x="-4570" y="2435" />
            </Array>
          </mxGeometry>
        </mxCell>
        <mxCell id="t15liTDaATsOu2nz4iLN-22" value="decrease&amp;nbsp; cur_pv" style="whiteSpace=wrap;html=1;" parent="1" vertex="1">
          <mxGeometry x="-4620" y="1855" width="120" height="60" as="geometry" />
        </mxCell>
        <mxCell id="t15liTDaATsOu2nz4iLN-25" value="calculate increase" style="whiteSpace=wrap;html=1;" parent="1" vertex="1">
          <mxGeometry x="-4380" y="1995" width="120" height="60" as="geometry" />
        </mxCell>
        <mxCell id="t15liTDaATsOu2nz4iLN-27" value="increase digit of next pv" style="whiteSpace=wrap;html=1;" parent="1" vertex="1">
          <mxGeometry x="-3945" y="1855" width="120" height="60" as="geometry" />
        </mxCell>
        <mxCell id="t15liTDaATsOu2nz4iLN-28" value="or" style="text;html=1;align=center;verticalAlign=middle;resizable=0;points=[];autosize=1;strokeColor=none;fillColor=none;" parent="1" vertex="1">
          <mxGeometry x="-4000" y="1870" width="30" height="30" as="geometry" />
        </mxCell>
        <mxCell id="t15liTDaATsOu2nz4iLN-29" value="continue" style="whiteSpace=wrap;html=1;" parent="1" vertex="1">
          <mxGeometry x="-4380" y="2405" width="120" height="60" as="geometry" />
        </mxCell>
        <mxCell id="t15liTDaATsOu2nz4iLN-32" value="increase cur digit" style="whiteSpace=wrap;html=1;" parent="1" vertex="1">
          <mxGeometry x="-4380" y="2095" width="120" height="60" as="geometry" />
        </mxCell>
        <mxCell id="t15liTDaATsOu2nz4iLN-34" style="edgeStyle=orthogonalEdgeStyle;rounded=0;orthogonalLoop=1;jettySize=auto;html=1;" parent="1" source="t15liTDaATsOu2nz4iLN-33" target="t15liTDaATsOu2nz4iLN-29" edge="1">
          <mxGeometry relative="1" as="geometry" />
        </mxCell>
        <mxCell id="t15liTDaATsOu2nz4iLN-33" value="decrease new max of cur_pv" style="whiteSpace=wrap;html=1;" parent="1" vertex="1">
          <mxGeometry x="-4380" y="2175" width="120" height="60" as="geometry" />
        </mxCell>
        <mxCell id="t15liTDaATsOu2nz4iLN-35" value="pv = get log2 of rem" style="rounded=0;whiteSpace=wrap;html=1;" parent="1" vertex="1">
          <mxGeometry x="-4380" y="1200" width="120" height="60" as="geometry" />
        </mxCell>
      </root>
    </mxGraphModel>
  </diagram>
</mxfile>
